HIERARCHY
ROOT Hips
{
    OFFSET 0.000000 0.000000 0.000000
    CHANNELS 6 Xposition Yposition Zposition Zrotation Xrotation Yrotation
    JOINT Spine
    {
        OFFSET -0.000000 8.603107 0.000000
        CHANNELS 3 Zrotation Xrotation Yrotation
        JOINT Spine1
        {
            OFFSET -0.000000 23.906662 0.000000
            CHANNELS 3 Zrotation Xrotation Yrotation
            JOINT Neck
            {
                OFFSET -0.000000 23.808481 2.164407
                CHANNELS 3 Zrotation Xrotation Yrotation
                JOINT Head
                {
                    OFFSET -0.000000 14.688231 -2.098319
                    CHANNELS 3 Zrotation Xrotation Yrotation
                    End Site
                    {
                        OFFSET -0.000000 26.228985 0.000000
                    }
                }
            }
            JOINT LeftShoulder
            {
                OFFSET 4.178941 22.658146 -0.129871
                CHANNELS 3 Zrotation Xrotation Yrotation
                JOINT LeftArm
                {
                    OFFSET 9.497952 0.000000 0.000000
                    CHANNELS 3 Zrotation Xrotation Yrotation
                    JOINT LeftForeArm
                    {
                        OFFSET 38.855015 0.000000 0.000000
                        CHANNELS 3 Zrotation Xrotation Yrotation
                        JOINT LeftHand
                        {
                            OFFSET 24.940550 0.000000 0.000000
                            CHANNELS 3 Zrotation Xrotation Yrotation
                            End Site
                            {
                                OFFSET 15.737392 0.000000 0.000000
                            }
                        }
                    }
                }
            }
            JOINT RightShoulder
            {
                OFFSET -4.145384 22.658146 -0.129871
                CHANNELS 3 Zrotation Xrotation Yrotation
                JOINT RightArm
                {
                    OFFSET -9.497952 0.000000 0.000000
                    CHANNELS 3 Zrotation Xrotation Yrotation
                    JOINT RightForeArm
                    {
                        OFFSET -38.855015 0.000000 0.000000
                        CHANNELS 3 Zrotation Xrotation Yrotation
                        JOINT RightHand
                        {
                            OFFSET -24.940550 0.000000 0.000000
                            CHANNELS 3 Zrotation Xrotation Yrotation
                            End Site
                            {
                                OFFSET -15.737392 0.000000 0.000000
                            }
                        }
                    }
                }
            }
        }
    }
    JOINT LeftUpLeg
    {
        OFFSET 10.491594 0.000000 0.000000
        CHANNELS 3 Zrotation Xrotation Yrotation
        JOINT LeftLeg
        {
            OFFSET -0.000000 -46.080647 0.000000
            CHANNELS 3 Zrotation Xrotation Yrotation
            JOINT LeftFoot
            {
                OFFSET -0.000000 -50.184704 0.000000
                CHANNELS 3 Zrotation Xrotation Yrotation
                JOINT LeftToeBase
                {
                    OFFSET -0.000000 -6.819536 15.737392
                    CHANNELS 3 Zrotation Xrotation Yrotation
                    End Site
                    {
                        OFFSET -0.000000 0.000000 4.196638
                    }
                }
            }
        }
    }
    JOINT RightUpLeg
    {
        OFFSET -10.491594 0.000000 0.000000
        CHANNELS 3 Zrotation Xrotation Yrotation
        JOINT RightLeg
        {
            OFFSET -0.000000 -46.080647 0.000000
            CHANNELS 3 Zrotation Xrotation Yrotation
            JOINT RightFoot
            {
                OFFSET -0.000000 -50.184704 0.000000
                CHANNELS 3 Zrotation Xrotation Yrotation
                JOINT RightToeBase
                {
                    OFFSET -0.000000 -6.819536 15.737392
                    CHANNELS 3 Zrotation Xrotation Yrotation
                    End Site
                    {
                        OFFSET -0.000000 0.000000 4.196638
                    }
                }
            }
        }
    }
}
MOTION
Frames:    4
Frame Time:    0.008333
-8.575125    103.706108    41.246002    -1.643319    1.967753    94.559402    -2.560837    -5.412123    -0.456048    1.411593    -2.372218    -0.305912    3.281898    12.742662    1.099702    1.307193    -0.130314    1.224497    13.872131    0.123528    -11.848068    -13.700225    4.318771    9.958033    3.568940    -5.764653    1.334639    1.052274    -5.789544    1.804136    -15.078280    0.699398    -7.591686    11.040150    -1.678784    3.085124    -0.614703    -4.054896    -1.939631    1.340704    -4.071215    -0.507984    -2.146144    -0.042877    -1.284477    -2.776459    7.482369    0.418277    -0.435899    -6.737222    14.003558    0.000000    0.000000    0.000000    -2.219060    5.236876    -2.818722    2.978100    -2.848620    -0.960828    -1.433284    -2.731634    -12.422230    0.000000    0.000000    0.000000    
-8.581224    103.706169    41.244793    -1.646104    1.967650    94.556450    -2.567755    -5.409639    -0.452943    1.414097    -2.391010    -0.302261    3.293406    12.766035    1.093114    1.293912    -0.155566    1.216291    13.878858    0.131523    -11.873722    -13.700549    4.351120    9.942547    3.616343    -5.720337    1.351897    1.276529    -5.743247    1.764755    -15.048348    0.701163    -7.603529    11.000451    -1.563851    3.100533    -0.606582    -4.050653    -1.984074    1.402727    -4.067327    -0.506037    -2.150762    -0.047440    -1.286639    -2.768466    7.482076    0.422812    -0.437731    -6.736177    14.001673    0.000000    0.000000    0.000000    -2.221328    5.224832    -2.841064    2.984174    -2.838392    -0.947422    -1.431475    -2.735583    -12.418528    0.000000    0.000000    0.000000    
-8.585618    103.705536    41.244736    -1.651589    1.966587    94.552780    -2.564815    -5.409188    -0.452940    1.400550    -2.404316    -0.302518    3.297874    12.767473    1.100164    1.310120    -0.164248    1.225938    13.890879    0.135008    -11.875691    -13.687559    4.341547    9.935504    3.637067    -5.748233    1.339304    1.350672    -5.769843    1.764644    -15.028151    0.695481    -7.595529    10.980875    -1.456757    3.096004    -0.578358    -4.008713    -2.031019    1.362578    -4.023698    -0.400446    -2.152197    -0.057163    -1.287959    -2.768426    7.486052    0.421213    -0.445099    -6.738712    14.008549    0.000000    0.000000    0.000000    -2.220118    5.221908    -2.818470    2.979181    -2.852750    -0.966194    -1.432520    -2.729624    -12.414114    0.000000    0.000000    0.000000    
-8.589311    103.705719    41.245872    -1.651184    1.961653    94.549683    -2.575541    -5.403318    -0.444347    1.419681    -2.419523    -0.292794    3.260682    12.781269    1.080350    1.374972    -0.196150    1.216676    13.881097    0.145465    -11.909734    -13.656235    4.267221    9.935072    3.639509    -5.763230    1.371779    1.505140    -5.785166    1.639687    -15.020704    0.707117    -7.613132    10.964003    -1.388213    3.098863    -0.589048    -3.940914    -2.050344    1.423410    -3.956226    -0.385371    -2.144730    -0.058914    -1.288959    -2.771502    7.486605    0.418392    -0.448482    -6.742890    14.014774    0.000000    0.000000    0.000000    -2.212775    5.214849    -2.848609    2.977420    -2.843557    -0.948007    -1.442634    -2.726945    -12.401869    0.000000    0.000000    0.000000    
